<mxfile host="app.diagrams.net" modified="2023-09-12T19:59:49.212Z" agent="Mozilla/5.0 (Windows NT 10.0; Win64; x64) AppleWebKit/537.36 (KHTML, like Gecko) Chrome/116.0.0.0 Safari/537.36" etag="vDp6Cp3SibteiiwivvSi" version="21.7.4" type="google">
  <diagram name="Página-1" id="c6vsh_rJmeAS8LaulAuQ">
    <mxGraphModel grid="1" page="1" gridSize="10" guides="1" tooltips="1" connect="1" arrows="1" fold="1" pageScale="1" pageWidth="827" pageHeight="1169" math="0" shadow="0">
      <root>
        <mxCell id="0" />
        <mxCell id="1" parent="0" />
        <mxCell id="iECpz8YQ9cNEyEhT9Mwm-3" style="edgeStyle=orthogonalEdgeStyle;rounded=0;orthogonalLoop=1;jettySize=auto;html=1;" edge="1" parent="1" source="iECpz8YQ9cNEyEhT9Mwm-1" target="iECpz8YQ9cNEyEhT9Mwm-2">
          <mxGeometry relative="1" as="geometry" />
        </mxCell>
        <mxCell id="iECpz8YQ9cNEyEhT9Mwm-1" value="" style="ellipse;html=1;shape=endState;" vertex="1" parent="1">
          <mxGeometry x="100" y="50" width="30" height="30" as="geometry" />
        </mxCell>
        <mxCell id="iECpz8YQ9cNEyEhT9Mwm-8" style="edgeStyle=orthogonalEdgeStyle;rounded=0;orthogonalLoop=1;jettySize=auto;html=1;" edge="1" parent="1" source="iECpz8YQ9cNEyEhT9Mwm-2" target="iECpz8YQ9cNEyEhT9Mwm-5">
          <mxGeometry relative="1" as="geometry" />
        </mxCell>
        <mxCell id="iECpz8YQ9cNEyEhT9Mwm-2" value="localizar livro a devolver" style="rounded=1;whiteSpace=wrap;html=1;" vertex="1" parent="1">
          <mxGeometry x="220" y="35" width="120" height="60" as="geometry" />
        </mxCell>
        <mxCell id="iECpz8YQ9cNEyEhT9Mwm-9" style="edgeStyle=orthogonalEdgeStyle;rounded=0;orthogonalLoop=1;jettySize=auto;html=1;" edge="1" parent="1" source="iECpz8YQ9cNEyEhT9Mwm-5" target="iECpz8YQ9cNEyEhT9Mwm-6">
          <mxGeometry relative="1" as="geometry" />
        </mxCell>
        <mxCell id="iECpz8YQ9cNEyEhT9Mwm-5" value="realizar processo de devolução" style="rounded=1;whiteSpace=wrap;html=1;" vertex="1" parent="1">
          <mxGeometry x="460" y="35" width="120" height="60" as="geometry" />
        </mxCell>
        <mxCell id="iECpz8YQ9cNEyEhT9Mwm-10" style="edgeStyle=orthogonalEdgeStyle;rounded=0;orthogonalLoop=1;jettySize=auto;html=1;" edge="1" parent="1" source="iECpz8YQ9cNEyEhT9Mwm-6" target="iECpz8YQ9cNEyEhT9Mwm-7">
          <mxGeometry relative="1" as="geometry" />
        </mxCell>
        <mxCell id="iECpz8YQ9cNEyEhT9Mwm-6" value="registrar devolução do livro" style="rounded=1;whiteSpace=wrap;html=1;" vertex="1" parent="1">
          <mxGeometry x="460" y="170" width="120" height="60" as="geometry" />
        </mxCell>
        <mxCell id="iECpz8YQ9cNEyEhT9Mwm-12" style="edgeStyle=orthogonalEdgeStyle;rounded=0;orthogonalLoop=1;jettySize=auto;html=1;entryX=1;entryY=0.5;entryDx=0;entryDy=0;" edge="1" parent="1" source="iECpz8YQ9cNEyEhT9Mwm-7" target="iECpz8YQ9cNEyEhT9Mwm-11">
          <mxGeometry relative="1" as="geometry" />
        </mxCell>
        <mxCell id="iECpz8YQ9cNEyEhT9Mwm-7" value="atualizar disponibilidade do livro" style="rounded=1;whiteSpace=wrap;html=1;" vertex="1" parent="1">
          <mxGeometry x="460" y="310" width="120" height="60" as="geometry" />
        </mxCell>
        <mxCell id="iECpz8YQ9cNEyEhT9Mwm-14" style="edgeStyle=orthogonalEdgeStyle;rounded=0;orthogonalLoop=1;jettySize=auto;html=1;" edge="1" parent="1" source="iECpz8YQ9cNEyEhT9Mwm-11" target="iECpz8YQ9cNEyEhT9Mwm-13">
          <mxGeometry relative="1" as="geometry" />
        </mxCell>
        <mxCell id="iECpz8YQ9cNEyEhT9Mwm-11" value="emitir comprovante de devolução" style="rounded=1;whiteSpace=wrap;html=1;" vertex="1" parent="1">
          <mxGeometry x="220" y="310" width="120" height="60" as="geometry" />
        </mxCell>
        <mxCell id="iECpz8YQ9cNEyEhT9Mwm-13" value="" style="ellipse;html=1;shape=endState;fillColor=#FFFFFF;strokeColor=#ff0000;" vertex="1" parent="1">
          <mxGeometry x="265" y="250" width="30" height="30" as="geometry" />
        </mxCell>
        <mxCell id="iECpz8YQ9cNEyEhT9Mwm-15" value="FIM DO&amp;nbsp;&lt;br&gt;PROCESSO" style="text;html=1;align=center;verticalAlign=middle;resizable=0;points=[];autosize=1;strokeColor=none;fillColor=none;" vertex="1" parent="1">
          <mxGeometry x="160" y="245" width="90" height="40" as="geometry" />
        </mxCell>
      </root>
    </mxGraphModel>
  </diagram>
</mxfile>
